<svg xmlns="http://www.w3.org/2000/svg" width="429.113" height="443.101" viewBox="0 0 429.113 443.101"><defs><style>.a{fill:rgba(0,0,0,0.33);}.b{fill:#1b3e60;}.c{fill:#112d48;}</style></defs><g transform="translate(-762.073 -716.674) rotate(25)"><path class="a" d="M0,0H203a0,0,0,0,1,0,0V231.684a100,100,0,0,1-100,100h-3a100,100,0,0,1-100-100V0A0,0,0,0,1,0,0Z" transform="translate(1127.635 486.189) rotate(-68)"/><circle class="b" cx="102.108" cy="102.108" r="102.108" transform="translate(1071.771 290.987)"/><circle class="c" cx="89.869" cy="89.869" r="89.869" transform="translate(1084.01 303.226)"/><g transform="translate(1117.958 310.985)"><path class="b" d="M1317.942,447.582s-7.929-51.483-15.8-74.5c-3.445-10.07-11.411-15.966-19.283-19.413a50.165,50.165,0,0,0-40.173,0c-7.872,3.447-15.838,9.343-19.283,19.413-7.874,23.016-15.8,74.5-15.8,74.5s-8,34.706,28.289,50.694a66.79,66.79,0,0,0,53.766,0C1325.946,482.288,1317.942,447.582,1317.942,447.582Z" transform="translate(-1206.849 -349.473)"/><path class="c" d="M1271.995,508.351a61.519,61.519,0,0,1-24.953-5.243c-13.47-5.934-21.86-15.254-24.938-27.7a42.594,42.594,0,0,1-.613-17.55l.035-.156.028-.174c.079-.511,7.955-51.33,15.6-73.679,2.477-7.24,8.086-12.817,16.674-16.577a45.378,45.378,0,0,1,36.333,0c8.587,3.76,14.2,9.337,16.673,16.577,7.646,22.349,15.522,73.168,15.6,73.679l.027.174.04.172a42.6,42.6,0,0,1-.616,17.534c-3.078,12.449-11.469,21.77-24.939,27.7A61.519,61.519,0,0,1,1271.995,508.351Z" transform="translate(-1216.073 -358.687)"/></g><ellipse cx="45.729" cy="34.524" rx="45.729" ry="34.524" transform="translate(1128.151 385.508)"/><g transform="translate(1144.807 325.424)"><path class="b" d="M1317.453,391.7h-6.019a26.063,26.063,0,0,0-26.063,26.063V456.51a29.073,29.073,0,0,0,29.073,29.073h0a29.072,29.072,0,0,0,29.073-29.073V417.765A26.063,26.063,0,0,0,1317.453,391.7Zm-3.01,84.249a16.684,16.684,0,1,1,16.684-16.684A16.684,16.684,0,0,1,1314.444,475.951Zm18.548-59.791-.251,3.906a14.216,14.216,0,0,1-14.431,13.009h-7.731a14.216,14.216,0,0,1-14.432-13.009l-.251-3.906c-.513-7.977,6.1-14.716,14.431-14.716h8.234C1326.9,401.443,1333.506,408.183,1332.992,416.16Z" transform="translate(-1285.371 -391.702)"/></g></g></svg>