<svg xmlns="http://www.w3.org/2000/svg" width="32" height="32" viewBox="0 0 32 32"><defs><style>.a{fill:#5c81a5;}.b{fill:#fff;font-size:16px;font-family:Helvetica-Bold, Helvetica;font-weight:700;}.c{fill:#0b1c2c;}</style></defs><circle class="a" cx="16" cy="16" r="16"/><text class="b" transform="translate(16 22)"><tspan x="-4.887" y="0">T</tspan></text><path class="c" d="M-456.645,118.628a1.977,1.977,0,0,1-.275-.512c-.065.016-.129.034-.192.053l.161-.08a6.387,6.387,0,0,0-.6-1.247l.047-.026a11.846,11.846,0,0,0-10.637-6.109,11.846,11.846,0,0,0-10.637,6.109l.047.026a6.387,6.387,0,0,0-.6,1.247l.161.08c-.063-.019-.127-.037-.192-.053a1.978,1.978,0,0,1-.275.512,5.145,5.145,0,0,0-.148,4.187l.012,0,.189.452a1.773,1.773,0,0,1,.088.653,8.515,8.515,0,0,0,.619,2.178,24.357,24.357,0,0,0,2.11,8.135h2.095l-.044-.119c.02.033.031.048.031.048s.347.185.484-.114a7.533,7.533,0,0,0,1.33-.121,1.837,1.837,0,0,0,1.1-.461l-.012-.034c.06.016.762.09-.545-5.733s-1.709-5.208-1.741-5.145a2.562,2.562,0,0,0-1.109.02,2.807,2.807,0,0,0-1.263.471,3.7,3.7,0,0,0-.032.432,3.418,3.418,0,0,1,.017-.474.44.44,0,0,0-.5.111s-.005.018-.013.059c0-.09,0-.137,0-.137l-1.1.441c-.035-.337-.011-.626.291-.135l.088-.029-.294-.4a.942.942,0,0,1-.261-.6.134.134,0,0,0-.038-.017,7.85,7.85,0,0,1,.412-3.516l-.029-.019a6.044,6.044,0,0,1,.582-1.2h0a11.216,11.216,0,0,1,9.174-5.2,11.216,11.216,0,0,1,9.174,5.2h0a6.045,6.045,0,0,1,.582,1.2l-.029.019a7.849,7.849,0,0,1,.412,3.516.133.133,0,0,0-.038.017.942.942,0,0,1-.261.6l-.294.4.088.029c.3-.491.325-.2.291.135l-1.1-.441s0,.047,0,.137c-.007-.041-.013-.059-.013-.059a.44.44,0,0,0-.5-.111,3.414,3.414,0,0,1,.017.474,3.708,3.708,0,0,0-.032-.432,2.807,2.807,0,0,0-1.263-.471,2.562,2.562,0,0,0-1.109-.02c-.032-.063-.437-.667-1.741,5.145s-.605,5.749-.545,5.733l-.012.034a1.837,1.837,0,0,0,1.1.461,7.533,7.533,0,0,0,1.33.121c.137.3.484.114.484.114s.011-.015.031-.048l-.044.119h2.095a24.358,24.358,0,0,0,2.11-8.135,8.517,8.517,0,0,0,.619-2.178,1.773,1.773,0,0,1,.088-.653l.189-.452.012,0A5.145,5.145,0,0,0-456.645,118.628Z" transform="translate(484.149 -107.438)"/></svg>