<svg xmlns="http://www.w3.org/2000/svg" width="1323.919" height="910.92" viewBox="0 0 1323.919 910.92"><defs><style>.a{fill:rgba(0,0,0,0.33);}.b{fill:#27537e;}.c{fill:#112f4d;}</style></defs><g transform="translate(684.419 -579.847)"><path class="a" d="M1829.378,1267.981c10.2,27.954-2.531,60.984-26.8,77.408-14.273,9.657-30.1,10.661-46.868,10.64-17.283-.022-34.885.5-48.888,11.949-11.481,9.389-18.472,22.872-28.845,33.308-5.475,5.509-11.891,9.737-19.586,11.324-9.8,2.021-20,.11-29.777-1.079-17.59-2.141-36.368-3.144-52.985,4.117-16.828,7.354-26.841,22.835-37.572,36.909a174.789,174.789,0,0,1-85.5,60.068c-18.038,5.752-36.344,7.657-55.174,8.456-18.645.79-37.862,1.608-55.015,9.756-25.163,11.953-39.736,37.364-53.706,60.167-14.484,23.642-30.5,48.326-58.835,56.043-16.5,4.492-34.144,4.413-50.012,11.227-14.342,6.158-23.6,17.915-29.565,32-5.711,13.481-8.74,27.9-14.284,41.446a67.45,67.45,0,0,1-11.009,18.832c-6.09,7.01-14.069,11.728-22.256,15.9-9.445,4.81-19.03,9.357-28.549,14.019-3.338,1.635-.413,6.617,2.916,4.987,9.9-4.85,19.9-9.544,29.7-14.607,7.9-4.082,15.626-8.83,21.633-15.485,9.918-10.989,14.725-25.32,19.059-39.193,4.353-13.933,8.273-29.123,17.982-40.458,11.537-13.468,28.871-16.471,45.507-19.114,15.694-2.493,30.982-5.663,44.084-15.161,10.964-7.949,19.585-18.5,27.185-29.6,15.633-22.844,27.384-50.01,49.54-67.585,13.947-11.063,31.037-15.088,48.479-16.467,18.949-1.5,37.906-1.147,56.606-5.05a180.826,180.826,0,0,0,91.765-50.4c12.459-12.779,21.273-28.719,34.135-41.054,14.232-13.648,33.073-16.387,52.063-15.272,18.186,1.068,38.206,7.513,55.339-1.523,13.145-6.933,20.983-20.335,30.122-31.469,4.612-5.618,9.7-11.008,16.055-14.664,8.5-4.893,18.385-6.129,28.03-6.438,16.889-.541,34.128,1.224,50.081-5.541,26.68-11.314,44.817-40.308,44.346-69.153a63.62,63.62,0,0,0-3.829-20.768c-1.264-3.464-6.849-1.968-5.57,1.535Z" transform="matrix(0.995, 0.105, -0.105, 0.995, -1537.647, -477.436)"/><path class="b" d="M1829.378,1267.981c10.2,27.954-2.531,60.984-26.8,77.408-14.273,9.657-30.1,10.661-46.868,10.64-17.283-.022-34.885.5-48.888,11.949-11.481,9.389-18.472,22.872-28.845,33.308-5.475,5.509-11.891,9.737-19.586,11.324-9.8,2.021-20,.11-29.777-1.079-17.59-2.141-36.368-3.144-52.985,4.117-16.828,7.354-26.841,22.835-37.572,36.909a174.789,174.789,0,0,1-85.5,60.068c-18.038,5.752-36.344,7.657-55.174,8.456-18.645.79-37.862,1.608-55.015,9.756-25.163,11.953-39.736,37.364-53.706,60.167-14.484,23.642-30.5,48.326-58.835,56.043-16.5,4.492-34.144,4.413-50.012,11.227-14.342,6.158-23.6,17.915-29.565,32-5.711,13.481-8.74,27.9-14.284,41.446a67.45,67.45,0,0,1-11.009,18.832c-6.09,7.01-14.069,11.728-22.256,15.9-9.445,4.81-19.03,9.357-28.549,14.019-3.338,1.635-.413,6.617,2.916,4.987,9.9-4.85,19.9-9.544,29.7-14.607,7.9-4.082,15.626-8.83,21.633-15.485,9.918-10.989,14.725-25.32,19.059-39.193,4.353-13.933,8.273-29.123,17.982-40.458,11.537-13.468,28.871-16.471,45.507-19.114,15.694-2.493,30.982-5.663,44.084-15.161,10.964-7.949,19.585-18.5,27.185-29.6,15.633-22.844,27.384-50.01,49.54-67.585,13.947-11.063,31.037-15.088,48.479-16.467,18.949-1.5,37.906-1.147,56.606-5.05a180.826,180.826,0,0,0,91.765-50.4c12.459-12.779,21.273-28.719,34.135-41.054,14.232-13.648,33.073-16.387,52.063-15.272,18.186,1.068,38.206,7.513,55.339-1.523,13.145-6.933,20.983-20.335,30.122-31.469,4.612-5.618,9.7-11.008,16.055-14.664,8.5-4.893,18.385-6.129,28.03-6.438,16.889-.541,34.128,1.224,50.081-5.541,26.68-11.314,44.817-40.308,44.346-69.153a63.62,63.62,0,0,0-3.829-20.768c-1.264-3.464-6.849-1.968-5.57,1.535Z" transform="translate(-1464.536 -572.575) rotate(9)"/><path class="a" d="M291.573,248.583c-2.309-2.309-4.782-8.9-4.782-8.9-1.13.279-2.246.59-3.345.921l2.8-1.4s-5.007-14.112-10.432-21.7l.811-.447S225.88,110.707,91.475,110.707-93.671,217.051-93.671,217.051l.811.447c-5.426,7.592-10.432,21.7-10.432,21.7l2.795,1.4c-1.1-.331-2.214-.642-3.345-.921,0,0-2.473,6.6-4.782,8.9s-17.312,35.944-2.579,72.877l.214-.081,3.282,7.876a30.875,30.875,0,0,1,1.526,11.364c-.327,3.592,2.779,16.036,10.776,37.9C-92.2,449.8-58.68,520.119-58.68,520.119h36.466c-.259-.7-.508-1.385-.763-2.078.351.575.537.828.537.828s6.047,3.222,8.429-1.984a131.107,131.107,0,0,0,23.148-2.1c14.652-2.442,19.187-8.024,19.187-8.024s-.072-.207-.206-.6c1.044.277,13.256,1.559-9.49-99.8C-4.078,305.2-11.123,315.723-11.686,316.812c-2.037-.612-7.654-1.639-19.3.348-15.35,2.62-21.978,8.2-21.978,8.2a64.53,64.53,0,0,0-.551,7.516,59.418,59.418,0,0,1,.3-8.245,7.657,7.657,0,0,0-8.733,1.929s-.092.321-.22,1.03c-.006-1.564.013-2.385.013-2.385l-19.066,7.671c-.6-5.86-.189-10.9,5.06-2.344l1.526-.509-5.123-6.954A16.4,16.4,0,0,1-84.3,312.548a2.308,2.308,0,0,0-.662-.3c-.5-6.415-2.895-43.315,7.171-61.193,0,0-.178-.116-.507-.324a105.224,105.224,0,0,1,10.135-20.88l-.041-.023c57.28-92.623,159.68-90.591,159.68-90.591s102.4-2.032,159.679,90.591l-.04.023a105.224,105.224,0,0,1,10.135,20.88c-.33.208-.508.324-.508.324,10.066,17.878,7.675,54.779,7.171,61.193a2.308,2.308,0,0,0-.662.3,16.393,16.393,0,0,1-4.545,10.516l-5.124,6.954,1.527.509c5.248-8.553,5.662-3.516,5.059,2.344L245.1,325.2s.019.82.012,2.385c-.128-.71-.22-1.031-.22-1.031a7.656,7.656,0,0,0-8.732-1.929,59.423,59.423,0,0,1,.3,8.245,64.536,64.536,0,0,0-.551-7.516s-6.629-5.576-21.979-8.2c-11.641-1.987-17.26-.96-19.3-.348-.562-1.088-7.608-11.614-30.313,89.558-22.746,101.354-10.534,100.072-9.49,99.8-.134.389-.206.6-.206.6s4.535,5.582,19.188,8.024a131.1,131.1,0,0,0,23.148,2.1c2.382,5.206,8.429,1.984,8.429,1.984s.185-.253.536-.828c-.255.693-.5,1.382-.763,2.078H241.63s33.52-70.316,36.726-141.595c8-21.868,11.1-34.312,10.775-37.9a30.868,30.868,0,0,1,1.527-11.364l3.281-7.876.214.081C308.886,284.527,293.882,250.892,291.573,248.583Z" transform="matrix(0.914, 0.407, -0.407, 0.914, 409.961, 534.908)"/><path class="c" d="M474.419,381.649S479.9,366.2,485.6,358.963l23.852,13.362a104.151,104.151,0,0,0-10.386,21.651Z" transform="matrix(0.914, 0.407, -0.407, 0.914, -70.827, 151.386)"/><path class="b" d="M468.565,390.736s-2.466,6.577-4.768,8.879-17.264,35.844-2.572,72.674l19.179-7.234s5.919-2.3,7.07-.987c0,0-3.946-42.42,7.07-61.986A95.348,95.348,0,0,0,468.565,390.736Z" transform="matrix(0.914, 0.407, -0.407, 0.914, -62.478, 145.677)"/><path class="b" d="M521.738,702.1s-47.529-99.681-34.666-181.821l31.2-12.554S516.327,589.761,558.1,702.1Z" transform="matrix(0.914, 0.407, -0.407, 0.914, -57.014, 113.402)"/><path class="c" d="M530.613,508.631s-5.511,19.027,9.524,92.21c16.812,81.834,29.871,99.569,29.871,99.569s6.494,3.463,8.658-2.6c0,0-15.585-28.139-29-99.569s-10.341-91.536-10.341-91.536A7.635,7.635,0,0,0,530.613,508.631Z" transform="matrix(0.914, 0.407, -0.407, 0.914, -68.279, 108.874)"/><path class="b" d="M543.042,504.467s6.61-5.56,21.917-8.172,20.177,0,20.177,0,.362,36.2,12.872,94.448A882.458,882.458,0,0,0,624.1,685.368s-4.523,5.566-19.133,8-23.308,2.087-23.308,2.087S568.513,673.015,552.4,595.3C538.833,529.862,543.042,504.467,543.042,504.467Z" transform="matrix(0.914, 0.407, -0.407, 0.914, -72.654, 110.175)"/><path class="c" d="M599.657,496.026s6.61-16.18,30.266,89.23,9.393,99.5,9.393,99.5-12.176-15.655-26.787-97.06S599.657,496.026,599.657,496.026Z" transform="matrix(0.914, 0.407, -0.407, 0.914, -86.809, 103.873)"/><path class="c" d="M463.739,498.764l3.383,8.119a30.791,30.791,0,0,1,1.522,11.333c-.507,5.582,7.273,32.56,28.924,83.22,0,0,7.95,17.168,19.959,4.482,0,0,5.244-2.876,0-16.577S495,519.653,495,519.653s-5.547-26.387,3.587-11.5l1.522-.508L495,500.708a16.348,16.348,0,0,1-4.532-10.487s-1.522-1.184-5.751,0S469.321,494.112,463.739,498.764Z" transform="matrix(0.914, 0.407, -0.407, 0.914, -53.772, 120.195)"/><path class="c" d="M994.262,381.649s-5.48-15.452-11.179-22.686l-23.852,13.362a104.151,104.151,0,0,1,10.386,21.651Z" transform="matrix(0.914, 0.407, -0.407, 0.914, -190.863, 97.943)"/><path class="b" d="M672.209,214.307c-134.029,0-184.629,106.047-184.629,106.047,16.036,8.794,24.313,14.485,24.313,14.485,56.9-94.15,160.317-92.08,160.317-92.08s103.413-2.07,160.317,92.08c0,0,8.277-5.69,24.313-14.485C856.839,320.354,806.239,214.307,672.209,214.307Z" transform="matrix(0.914, 0.407, -0.407, 0.914, -90.032, 185.751)"/><path class="b" d="M998.38,390.736s2.466,6.577,4.768,8.879,17.264,35.844,2.572,72.674l-19.179-7.234s-5.919-2.3-7.07-.987c0,0,3.946-42.42-7.07-61.986A95.349,95.349,0,0,1,998.38,390.736Z" transform="matrix(0.914, 0.407, -0.407, 0.914, -190.621, 88.624)"/><path class="b" d="M932.738,702.1s47.529-99.681,34.666-181.821l-31.2-12.554s1.948,82.036-39.828,194.375Z" transform="matrix(0.914, 0.407, -0.407, 0.914, -158.901, 68.04)"/><path class="c" d="M932.86,508.631s5.511,19.027-9.524,92.21c-16.812,81.834-29.87,99.569-29.87,99.569s-6.494,3.463-8.658-2.6c0,0,15.585-28.139,29-99.569s10.341-91.536,10.341-91.536A7.635,7.635,0,0,1,932.86,508.631Z" transform="matrix(0.914, 0.407, -0.407, 0.914, -156.218, 69.721)"/><path class="b" d="M908.3,504.467s-6.61-5.56-21.917-8.172-20.177,0-20.177,0-.362,36.2-12.872,94.448a882.467,882.467,0,0,1-26.091,94.625s4.523,5.566,19.133,8,23.308,2.087,23.308,2.087,13.144-22.442,29.256-100.153C912.506,529.862,908.3,504.467,908.3,504.467Z" transform="matrix(0.914, 0.407, -0.407, 0.914, -143.172, 78.778)"/><path class="c" d="M865.694,496.026s-6.61-16.18-30.266,89.23-9.393,99.5-9.393,99.5,12.176-15.655,26.787-97.06S865.694,496.026,865.694,496.026Z" transform="matrix(0.914, 0.407, -0.407, 0.914, -141.819, 79.381)"/><path class="c" d="M997.1,498.764l-3.383,8.119a30.792,30.792,0,0,0-1.522,11.333c.507,5.582-7.273,32.56-28.924,83.22,0,0-7.949,17.168-19.959,4.482,0,0-5.244-2.876,0-16.577s22.531-69.688,22.531-69.688,5.547-26.387-3.587-11.5l-1.522-.508,5.109-6.935a16.347,16.347,0,0,0,4.532-10.487s1.522-1.184,5.751,0S991.52,494.112,997.1,498.764Z" transform="matrix(0.914, 0.407, -0.407, 0.914, -171.934, 67.586)"/></g></svg>