<svg xmlns="http://www.w3.org/2000/svg" width="65.481" height="53.516" viewBox="0 0 65.481 53.516"><defs><style>.a{fill:#fff;}</style></defs><path class="a" d="M1301.053,448.158a27.673,27.673,0,0,0,19.7-5.67,13.629,13.629,0,0,1-7.807-2.694,13.381,13.381,0,0,1-4.766-6.658,14.291,14.291,0,0,0,5.893-.264,13.524,13.524,0,0,1-10.591-13.358,14.161,14.161,0,0,0,5.989,1.589,13.45,13.45,0,0,1-5.834-9.679,12.82,12.82,0,0,1,1.742-8.248,38.618,38.618,0,0,0,27.762,14.064c-.084-.8-.2-1.527-.233-2.261a13.154,13.154,0,0,1,6.639-12.479,13.391,13.391,0,0,1,15.948,1.744,1.548,1.548,0,0,0,1.674.443,28.553,28.553,0,0,0,7.435-2.971c.005,1.661-2.29,4.7-5.378,7.326.79-.144,1.587-.259,2.369-.439.832-.192,1.659-.419,2.473-.678.788-.25,1.556-.56,2.333-.844l.13.137c-1.075,1.259-2.1,2.568-3.242,3.76a35.232,35.232,0,0,1-2.99,2.625,1.035,1.035,0,0,0-.421.921,39.067,39.067,0,0,1-8.318,25.169,35.779,35.779,0,0,1-22.673,13.785,38.86,38.86,0,0,1-20.739-1.737A33.372,33.372,0,0,1,1301.053,448.158Z" transform="translate(-1301.053 -400.635)"/></svg>