<svg xmlns="http://www.w3.org/2000/svg" width="53.422" height="53.516" viewBox="0 0 53.422 53.516"><defs><style>.a{fill:#fff;}</style></defs><path class="a" d="M857.456,458.958c-4.117-.109-8.238-.149-12.351-.352a15.124,15.124,0,0,1-8.011-2.619,13.9,13.9,0,0,1-5.736-8.767,33.237,33.237,0,0,1-.614-7.119q-.028-9.049.075-18.1a20.2,20.2,0,0,1,1.143-6.982,13.707,13.707,0,0,1,10.573-8.958,36.127,36.127,0,0,1,7.467-.589q7.553-.064,15.107,0a39.394,39.394,0,0,1,7.176.566,14.006,14.006,0,0,1,11.269,11.235,42.326,42.326,0,0,1,.586,7.959q.047,7.578-.025,15.156a31.148,31.148,0,0,1-.61,6.826,13.723,13.723,0,0,1-10.317,10.821,31.94,31.94,0,0,1-8.08.779c-2.55.043-5.1.009-7.651.009Zm-.029-48.784,0,.089c-2.191,0-4.383-.036-6.573.01a40.752,40.752,0,0,0-7.232.482,8.98,8.98,0,0,0-7.305,6.4,19.66,19.66,0,0,0-.713,5.821c-.057,5.248-.108,10.5-.06,15.743a49.31,49.31,0,0,0,.48,7.082,8.752,8.752,0,0,0,6.265,7.4,19.765,19.765,0,0,0,6.107.766c5.428.046,10.856.075,16.284.032a47.455,47.455,0,0,0,6.2-.41,8.862,8.862,0,0,0,7.885-7.43,32.843,32.843,0,0,0,.518-5.8q.117-7.552.032-15.106a50.5,50.5,0,0,0-.5-6.931,8.613,8.613,0,0,0-4.8-6.656,12.357,12.357,0,0,0-5.308-1.236C864.944,410.329,861.185,410.261,857.427,410.174Z" transform="translate(-830.739 -405.442)"/><path class="a" d="M910.584,471.674a13.716,13.716,0,1,1-13.723,13.676A13.7,13.7,0,0,1,910.584,471.674Zm8.894,13.741a8.9,8.9,0,1,0-9.043,8.875A8.886,8.886,0,0,0,919.477,485.415Z" transform="translate(-883.887 -458.678)"/><path class="a" d="M1026.377,458.943a3.2,3.2,0,1,1,3.212-3.206A3.211,3.211,0,0,1,1026.377,458.943Z" transform="translate(-985.411 -443.297)"/></svg>