<svg xmlns="http://www.w3.org/2000/svg" width="535.377" height="613.433" viewBox="0 0 535.377 613.433"><defs><style>.a{fill:#799dc1;}.b{fill:#a0bcd8;}.c,.d{fill:none;stroke-width:3px;}.c{stroke:#076f38;}.d{stroke:#1c1776;}.e{fill:rgba(0,0,0,0.52);}.f{fill:#1b3e60;}.g{fill:#112f4d;}.h{fill:#076f38;}</style></defs><g transform="translate(-70.611 -633.553)"><rect class="a" width="270" height="369" transform="matrix(0.966, 0.259, -0.259, 0.966, 166.115, 633.553)"/><g transform="matrix(0.985, -0.174, 0.174, 0.985, -74.868, 97.229)"><rect class="b" width="270" height="369" transform="translate(209 835.346)"/><line class="c" x2="90" transform="translate(254.5 913.5)"/><line class="d" x2="45" transform="translate(399.5 964.5)"/><line class="d" x2="144.5" transform="translate(306 1098.654)"/><line class="c" x2="76" transform="translate(250.59 1037.333)"/><line class="c" x2="53.5" transform="translate(342.09 1037.333)"/></g><g transform="translate(539.986 18.897) rotate(21)"><path class="e" d="M-3114.573,154.2a5,5,0,0,1-5-5V30.2l6-22,6,22h0v119a5,5,0,0,1-5,5Z" transform="translate(3221.238 1083.8)"/></g><g transform="translate(533.986 11.897) rotate(21)"><path class="f" d="M0,0H12a0,0,0,0,1,0,0V119a5,5,0,0,1-5,5H5a5,5,0,0,1-5-5V0A0,0,0,0,1,0,0Z" transform="translate(101.664 1114)"/><path class="g" d="M6,0l6,22H0Z" transform="translate(101.664 1092)"/><path class="h" d="M3,0,6,11H0Z" transform="translate(104.664 1092)"/></g></g></svg>