<svg xmlns="http://www.w3.org/2000/svg" width="446.409" height="361.464" viewBox="0 0 446.409 361.464"><defs><style>.a{fill:#153657;}.b{fill:#1b3e60;}.c,.d{fill:none;stroke-width:3px;}.c{stroke:#076f38;}.d{stroke:#1c1776;}.e{fill:rgba(0,0,0,0.52);}.f{fill:#112f4d;}.g{fill:#076f38;}.h{fill:rgba(0,0,0,0.33);}.i{fill:#27537e;}</style></defs><g transform="translate(186.284 -536.087)"><g transform="translate(-48.105 565.185)"><rect class="a" width="146.289" height="199.929" transform="matrix(0.966, 0.259, -0.259, 0.966, 51.745, 0)"/><g transform="matrix(0.985, -0.174, 0.174, 0.985, 111.289, 135.474)"><rect class="b" width="146.289" height="199.929" transform="translate(0 0)"/><line class="c" x2="48.763" transform="translate(24.652 42.345)"/><line class="d" x2="24.382" transform="translate(103.215 69.977)"/><line class="d" x2="78.292" transform="translate(52.556 142.663)"/><line class="c" x2="41.178" transform="translate(22.534 109.439)"/><line class="c" x2="28.987" transform="translate(72.11 109.439)"/></g><g transform="translate(93.706 239.073) rotate(21)"><path class="e" d="M0,75.854V11.92L3.251,0,6.5,11.92V75.854a3.251,3.251,0,0,1-6.5,0Z" transform="translate(0 0)"/></g><g transform="translate(90.455 235.28) rotate(21)"><path class="b" d="M0,0H6.5a0,0,0,0,1,0,0V63.934a3.251,3.251,0,0,1-3.251,3.251h0A3.251,3.251,0,0,1,0,63.934V0A0,0,0,0,1,0,0Z" transform="translate(0 11.92)"/><path class="f" d="M3.251,0,6.5,11.92H0Z" transform="translate(0)"/><path class="g" d="M1.625,0,3.251,5.96H0Z" transform="translate(1.625)"/></g></g><path class="h" d="M221.7,74.7c-1.251-1.251-2.591-4.824-2.591-4.824-.612.151-1.217.32-1.812.5l1.515-.758s-2.713-7.646-5.652-11.76l.44-.242S186.1,0,113.28,0,12.966,57.618,12.966,57.618l.44.242c-2.94,4.114-5.652,11.76-5.652,11.76l1.514.758c-.6-.179-1.2-.348-1.812-.5,0,0-1.34,3.573-2.591,4.824s-9.38,19.475-1.4,39.486l.116-.044,1.778,4.267a16.728,16.728,0,0,1,.827,6.157c-.177,1.946,1.505,8.689,5.839,20.537,1.736,38.62,19.9,76.718,19.9,76.718H51.682c-.14-.377-.275-.75-.413-1.126.19.311.291.448.291.448s3.276,1.746,4.567-1.075a71.035,71.035,0,0,0,12.542-1.138c7.938-1.323,10.4-4.347,10.4-4.347s-.039-.112-.112-.323c.566.15,7.182.844-5.142-54.07-12.3-54.817-16.119-49.113-16.424-48.524-1.1-.331-4.147-.888-10.455.189-8.317,1.42-11.908,4.44-11.908,4.44a34.963,34.963,0,0,0-.3,4.072,32.2,32.2,0,0,1,.162-4.467,4.149,4.149,0,0,0-4.731,1.045s-.05.174-.119.558c0-.848.007-1.292.007-1.292l-10.33,4.156c-.326-3.175-.1-5.9,2.742-1.27l.827-.276-2.776-3.768a8.884,8.884,0,0,1-2.463-5.7,1.251,1.251,0,0,0-.358-.162c-.273-3.476-1.568-23.469,3.885-33.155,0,0-.1-.063-.275-.175a57.012,57.012,0,0,1,5.491-11.313l-.022-.013C57.8,14.357,113.28,15.458,113.28,15.458s55.481-1.1,86.516,49.083l-.022.013a57.011,57.011,0,0,1,5.491,11.313c-.179.112-.275.175-.275.175,5.454,9.687,4.158,29.68,3.885,33.155a1.25,1.25,0,0,0-.358.162,8.882,8.882,0,0,1-2.462,5.7l-2.776,3.768.827.276c2.843-4.634,3.068-1.905,2.741,1.27l-10.33-4.156s.01.444.007,1.292c-.069-.385-.119-.558-.119-.558a4.148,4.148,0,0,0-4.731-1.045,32.2,32.2,0,0,1,.162,4.467,34.967,34.967,0,0,0-.3-4.072s-3.592-3.021-11.908-4.44c-6.307-1.077-9.352-.52-10.455-.189-.3-.59-4.122-6.293-16.424,48.524-12.324,54.915-5.707,54.22-5.142,54.07-.072.211-.112.323-.112.323s2.457,3.024,10.4,4.347a71.033,71.033,0,0,0,12.542,1.138c1.29,2.821,4.567,1.075,4.567,1.075s.1-.137.29-.448c-.138.375-.273.749-.413,1.126h19.758s18.162-38.1,19.9-76.718c4.333-11.848,6.015-18.591,5.838-20.537a16.725,16.725,0,0,1,.827-6.157l1.778-4.267.116.044C231.076,94.178,222.947,75.954,221.7,74.7Z" transform="matrix(0.914, 0.407, -0.407, 0.914, 53.153, 540.619)"/><g transform="matrix(0.914, 0.407, -0.407, 0.914, -57.258, 484.341)"><path class="h" d="M152.154,2.192c.163.929.339,1.855.5,2.784q.159.942.3,1.887.038.259.075.519c.017.117.063.458.022.153q.081.605.151,1.212a62.006,62.006,0,0,1,.353,11.049,40.978,40.978,0,0,1-2.7,12.563A38.2,38.2,0,0,1,144.2,42.984a33.607,33.607,0,0,1-7.611,6.656,34.2,34.2,0,0,1-4.092,2.2c-.173.078-.347.154-.52.231l-.224.1c.273-.117.017-.008-.033.013q-.56.229-1.126.443-1.052.4-2.124.734c-5.844,1.85-11.97,2.5-17.992,3.514a63.34,63.34,0,0,0-19.122,5.9c-7.823,4.095-14.14,10.43-19.261,17.542-.667.926-1.286,1.887-1.96,2.809l-.147.2c-.167.225.145-.182-.027.038q-.175.223-.356.44-.356.429-.736.836a19.353,19.353,0,0,1-1.565,1.5c-.135.115-.273.227-.409.341-.317.263.05-.028-.185.148q-.451.338-.92.651a20.291,20.291,0,0,1-1.8,1.065q-.462.243-.937.463c-.158.074-.317.144-.477.215-.262.117.158-.057-.207.086a28.946,28.946,0,0,1-4.146,1.276q-1.069.242-2.153.415-.274.044-.549.084c-.1.015-.588.08-.249.036q-.559.071-1.12.131c-1.56.163-3.129.249-4.7.289-3.252.082-6.506-.033-9.756-.161-6.588-.26-13.215-.6-19.763.376-6.244.935-12.272,3.449-16.578,8.2a27.747,27.747,0,0,0-3.091,4.149c-1.171,1.912,1.833,3.66,3,1.754a22.119,22.119,0,0,1,6.218-6.662q.922-.622,1.9-1.151.487-.264.985-.5.249-.12.5-.234c.11-.05.538-.237.444-.2-.132.055.314-.126.378-.151q.221-.088.444-.17.558-.209,1.126-.392,1.1-.359,2.235-.632,1.1-.269,2.225-.468.566-.1,1.134-.186l.49-.071c-.318.044.261-.032.36-.044,1.593-.191,3.194-.3,4.8-.362,3.312-.124,6.627-.029,9.937.1,6.532.248,13.1.664,19.605-.234,5.964-.823,11.8-3.13,15.8-7.787,1.409-1.638,2.537-3.491,3.819-5.225a63.8,63.8,0,0,1,4.619-5.562,49.049,49.049,0,0,1,9.284-7.884,44.223,44.223,0,0,1,9.343-4.582,66.073,66.073,0,0,1,9.513-2.494c6.074-1.168,12.267-1.739,18.269-3.278a38.8,38.8,0,0,0,17.191-9.138A41.331,41.331,0,0,0,156.28,25.929a62.925,62.925,0,0,0-.29-21.939c-.154-.909-.327-1.814-.485-2.722A1.752,1.752,0,0,0,153.367.055a1.777,1.777,0,0,0-1.214,2.137Z" transform="translate(2.412 216.168)"/><path class="f" d="M0,12.291S2.969,3.919,6.057,0L18.98,7.24A56.431,56.431,0,0,0,13.353,18.97Z" transform="translate(122.025 57.135)"/><path class="i" d="M7.435,0S6.1,3.563,4.851,4.811-4.5,24.231,3.458,44.186l10.391-3.92s3.207-1.247,3.83-.535c0,0-2.138-22.984,3.831-33.585A51.66,51.66,0,0,0,7.435,0Z" transform="translate(114.294 69.684)"/><path class="i" d="M19.979,105.315S-5.773,51.306,1.2,6.8L18.1,0S17.047,44.448,39.681,105.315Z" transform="translate(126.151 115.891)"/><path class="f" d="M.534,1.38s-2.986,10.309,5.16,49.96c9.109,44.339,16.184,53.947,16.184,53.947s3.518,1.877,4.691-1.407c0,0-8.444-15.246-15.715-53.948s-5.6-49.6-5.6-49.6A4.137,4.137,0,0,0,.534,1.38Z" transform="translate(143.831 115.242)"/><path class="i" d="M.334,5.057S3.915,2.044,12.209.629s10.932,0,10.932,0,.2,19.614,6.974,51.173a478.12,478.12,0,0,0,14.137,51.269s-2.45,3.016-10.367,4.335a68.587,68.587,0,0,1-12.629,1.131S14.135,96.378,5.405,54.273C-1.946,18.816.334,5.057.334,5.057Z" transform="translate(148.885 110.918)"/><path class="f" d="M.035.484s3.582-8.766,16.4,48.346,5.089,53.908,5.089,53.908-6.6-8.482-14.513-52.588S.035.484.035.484Z" transform="translate(171.465 110.918)"/><path class="f" d="M0,4.913l1.833,4.4a16.683,16.683,0,0,1,.825,6.141C2.383,18.477,6.6,33.094,18.329,60.542c0,0,4.308,9.3,10.814,2.429,0,0,2.841-1.558,0-8.982S16.935,16.232,16.935,16.232,13.93,1.935,18.879,10l.825-.275L16.935,5.967A8.857,8.857,0,0,1,14.48.285s-.825-.641-3.116,0S3.024,2.393,0,4.913Z" transform="translate(117.807 108.77)"/><path class="f" d="M18.98,12.291S16.011,3.919,12.923,0L0,7.24A56.43,56.43,0,0,1,5.627,18.97Z" transform="translate(313.511 57.135)"/><path class="i" d="M100.034,0C27.416,0,0,57.458,0,57.458c8.689,4.765,13.173,7.848,13.173,7.848C44,14.294,100.034,15.416,100.034,15.416s56.031-1.121,86.862,49.89c0,0,4.484-3.083,13.173-7.848C200.069,57.458,172.653,0,100.034,0Z" transform="translate(127.223 0)"/><path class="i" d="M14.075,0s1.336,3.563,2.583,4.811,9.354,19.421,1.393,39.376L7.661,40.267s-3.207-1.247-3.83-.535c0,0,2.138-22.984-3.831-33.585A51.661,51.661,0,0,1,14.075,0Z" transform="translate(318.712 69.684)"/><path class="i" d="M19.7,105.315S45.454,51.306,38.485,6.8L21.579,0S22.634,44.448,0,105.315Z" transform="translate(288.684 115.891)"/><path class="f" d="M26.035,1.38s2.986,10.309-5.16,49.96C11.766,95.679,4.691,105.288,4.691,105.288S1.173,107.165,0,103.881c0,0,8.444-15.246,15.715-53.948s5.6-49.6,5.6-49.6A4.136,4.136,0,0,1,26.035,1.38Z" transform="translate(284.115 115.242)"/><path class="i" d="M43.918,5.057S40.337,2.044,32.043.629s-10.932,0-10.932,0-.2,19.614-6.974,51.173A478.13,478.13,0,0,1,0,103.071s2.45,3.016,10.367,4.335A68.587,68.587,0,0,0,23,108.537s7.122-12.159,15.851-54.264C46.2,18.816,43.918,5.057,43.918,5.057Z" transform="translate(261.379 110.918)"/><path class="f" d="M23.8.484S20.216-8.283,7.4,48.829s-5.089,53.908-5.089,53.908,6.6-8.482,14.514-52.588S23.8.484,23.8.484Z" transform="translate(259.219 110.918)"/><path class="f" d="M30.406,4.913l-1.833,4.4a16.684,16.684,0,0,0-.825,6.141c.275,3.024-3.941,17.642-15.672,45.09,0,0-4.307,9.3-10.814,2.429,0,0-2.841-1.558,0-8.982S13.47,16.232,13.47,16.232,16.476,1.935,11.527,10L10.7,9.724,13.47,5.967A8.857,8.857,0,0,0,15.926.285s.825-.641,3.116,0S27.382,2.393,30.406,4.913Z" transform="translate(306.303 108.77)"/><path class="i" d="M152.154,2.192c.163.929.339,1.855.5,2.784q.159.942.3,1.887.038.259.075.519c.017.117.063.458.022.153q.081.605.151,1.212a62.006,62.006,0,0,1,.353,11.049,40.978,40.978,0,0,1-2.7,12.563A38.2,38.2,0,0,1,144.2,42.984a33.607,33.607,0,0,1-7.611,6.656,34.2,34.2,0,0,1-4.092,2.2c-.173.078-.347.154-.52.231l-.224.1c.273-.117.017-.008-.033.013q-.56.229-1.126.443-1.052.4-2.124.734c-5.844,1.85-11.97,2.5-17.992,3.514a63.34,63.34,0,0,0-19.122,5.9c-7.823,4.095-14.14,10.43-19.261,17.542-.667.926-1.286,1.887-1.96,2.809l-.147.2c-.167.225.145-.182-.027.038q-.175.223-.356.44-.356.429-.736.836a19.353,19.353,0,0,1-1.565,1.5c-.135.115-.273.227-.409.341-.317.263.05-.028-.185.148q-.451.338-.92.651a20.291,20.291,0,0,1-1.8,1.065q-.462.243-.937.463c-.158.074-.317.144-.477.215-.262.117.158-.057-.207.086a28.946,28.946,0,0,1-4.146,1.276q-1.069.242-2.153.415-.274.044-.549.084c-.1.015-.588.08-.249.036q-.559.071-1.12.131c-1.56.163-3.129.249-4.7.289-3.252.082-6.506-.033-9.756-.161-6.588-.26-13.215-.6-19.763.376-6.244.935-12.272,3.449-16.578,8.2a27.747,27.747,0,0,0-3.091,4.149c-1.171,1.912,1.833,3.66,3,1.754a22.119,22.119,0,0,1,6.218-6.662q.922-.622,1.9-1.151.487-.264.985-.5.249-.12.5-.234c.11-.05.538-.237.444-.2-.132.055.314-.126.378-.151q.221-.088.444-.17.558-.209,1.126-.392,1.1-.359,2.235-.632,1.1-.269,2.225-.468.566-.1,1.134-.186l.49-.071c-.318.044.261-.032.36-.044,1.593-.191,3.194-.3,4.8-.362,3.312-.124,6.627-.029,9.937.1,6.532.248,13.1.664,19.605-.234,5.964-.823,11.8-3.13,15.8-7.787,1.409-1.638,2.537-3.491,3.819-5.225a63.8,63.8,0,0,1,4.619-5.562,49.049,49.049,0,0,1,9.284-7.884,44.223,44.223,0,0,1,9.343-4.582,66.073,66.073,0,0,1,9.513-2.494c6.074-1.168,12.267-1.739,18.269-3.278a38.8,38.8,0,0,0,17.191-9.138A41.331,41.331,0,0,0,156.28,25.929a62.925,62.925,0,0,0-.29-21.939c-.154-.909-.327-1.814-.485-2.722A1.752,1.752,0,0,0,153.367.055a1.777,1.777,0,0,0-1.214,2.137Z" transform="translate(0 205.347)"/></g></g></svg>